<svg id="Layer_8" data-name="Layer 8" xmlns="http://www.w3.org/2000/svg" viewBox="0 0 100 100"><title>getting-started</title><path d="M21.165,39.023l1.618-1.4a3.261,3.261,0,0,1,4.264,0l1.618,1.4-1.4-1.618a3.261,3.261,0,0,1,0-4.264l1.4-1.618-1.618,1.4a3.261,3.261,0,0,1-4.264,0l-1.618-1.4,1.4,1.618a3.261,3.261,0,0,1,0,4.264Z" transform="translate(0 0)" fill="#f9e4c7" stroke="#f9e4c7" stroke-linecap="round" stroke-linejoin="round"/><rect width="100" height="100" transform="translate(100 100) rotate(180)" fill="none"/><polygon points="50 25.012 72.5 35.273 72.5 61.202 50 73.067 27.5 61.202 27.5 35.273 50 25.012" fill="#20c2ef" stroke="#394d54" stroke-linejoin="round" stroke-width="3"/><polygon points="72.5 61.202 72.5 35.273 50 46.523 50 73.067 72.5 61.202" fill="#20c2ef" stroke="#394d54" stroke-linejoin="round"/><polygon points="50 46.523 72.5 35.273 50 25.012 27.5 35.273 50 46.523" fill="#20c2ef" stroke="#394d54" stroke-linejoin="round"/><polygon points="50 26.44 29.601 35.743 28.665 35.31 50 25.563 71.338 35.292 70.423 35.754 50 26.44" fill="#fff" opacity="0.3"/><polygon points="71.996 36.09 71.996 36.969 50.5 47.717 50.49 46.843 71.996 36.09" fill="#fff" opacity="0.3"/><polygon points="27.5 61.202 27.5 35.273 50 46.523 50 73.067 27.5 61.202" fill="#0eacd1" stroke="#394d54" stroke-linejoin="round"/><polygon points="65.781 61.466 68.432 60.068 68.432 41.203 65.781 42.604 65.781 61.466" fill="#0eacd1" stroke="#394d54" stroke-linejoin="round" stroke-width="0.5"/><polygon points="60.425 64.203 63.076 62.805 63.076 43.94 60.425 45.341 60.425 64.203" fill="#0eacd1" stroke="#394d54" stroke-linejoin="round" stroke-width="0.5"/><polygon points="55.069 67.166 57.721 65.768 57.721 46.903 55.069 48.304 55.069 67.166" fill="#0eacd1" stroke="#394d54" stroke-linejoin="round" stroke-width="0.5"/><polygon points="68.182 41.629 68.182 59.918 67.45 60.306 67.448 42.856 67.448 42.856 66.035 43.521 66.035 42.753 68.182 41.629" opacity="0.12"/><polygon points="62.829 44.347 62.829 62.659 62.121 63.018 62.119 45.59 62.119 45.59 60.671 46.271 60.671 45.494 62.829 44.347" opacity="0.12"/><polygon points="57.471 47.312 57.471 65.618 56.765 65.98 56.763 48.558 56.763 48.559 55.318 49.239 55.318 48.459 57.471 47.312" opacity="0.12"/><polygon points="28 36.094 49.516 46.859 49.516 47.717 31.984 63 28 60.906 28 36.094" opacity="0.05"/><path d="M18.152,23.516a1.893,1.893,0,0,1,1.75-1.75l1.238-.09-1.238-.09a1.893,1.893,0,0,1-1.75-1.75L18.061,18.6l-0.09,1.238a1.893,1.893,0,0,1-1.75,1.75l-1.238.09,1.238,0.09a1.893,1.893,0,0,1,1.75,1.75l0.09,1.238,0.09-1.238" transform="translate(0 0)" fill="#f9e4c7" stroke="#f9e4c7" stroke-linecap="round" stroke-linejoin="round"/><circle cx="32.5" cy="23.132" r="1.5" fill="none" stroke="#f9e4c7" stroke-linecap="round" stroke-linejoin="round"/><path d="M86.873,37.19a1.893,1.893,0,0,1,0-2.475l0.812-.939-0.939.812a1.893,1.893,0,0,1-2.475,0l-0.939-.812,0.812,0.939a1.893,1.893,0,0,1,0,2.475l-0.812.939,0.939-.812a1.893,1.893,0,0,1,2.475,0l0.939,0.812-0.812-.939" transform="translate(0 0)" fill="#f9e4c7" stroke="#f9e4c7" stroke-linecap="round" stroke-linejoin="round"/><path d="M61.25,25.835l0.122-1.673A2.557,2.557,0,0,1,63.736,21.8l1.673-.122-1.673-.122a2.557,2.557,0,0,1-2.364-2.364L61.25,17.516l-0.122,1.673a2.557,2.557,0,0,1-2.364,2.364l-1.673.122L58.763,21.8a2.557,2.557,0,0,1,2.364,2.364Z" transform="translate(0 0)" fill="#f9e4c7" stroke="#f9e4c7" stroke-linecap="round" stroke-linejoin="round"/><circle cx="77.468" cy="19.148" r="1.5" fill="none" stroke="#f9e4c7" stroke-linecap="round" stroke-linejoin="round"/></svg>